# ProBuilder 5.0.7
# https://unity3d.com/unity/features/worldbuilding/probuilder
# 26.06.2023 15:02:45

mtllib ./ceiling.mtl
o ceiling

g Cube (1)
v 9.540138 6.969059 6.060489
v -0.05097961 6.969059 6.060489
v 9.540138 7.154907 6.060489
v -0.05097961 7.154907 6.060489
v -0.05097961 6.969059 -9.9233
v -0.05097961 7.154907 -9.9233
v 9.540138 6.969059 -9.9233
v 9.540138 7.154907 -9.9233

vt 10.10295 0
vt 0 0
vt 10.10295 0.1858479
vt 0 0.1858479
vt 21.65282 0
vt 21.65282 0.1858479
vt -10.10295 0
vt -10.10295 0.1858479
vt -21.65282 0
vt -21.65282 0.1858479
vt -10.10295 21.65282
vt 0 21.65282
vt 10.10295 21.65282

vn 0 0 0.7381849
vn -0.9493384 0 0
vn 0 0 -0.7381849
vn 0.9493384 0 0
vn 0 1 0
vn 0 -1 0

usemtl ceil
f 3/3/1 4/4/1 2/2/1 1/1/1
f 4/6/2 6/4/2 5/2/2 2/5/2
f 6/4/3 8/8/3 7/7/3 5/2/3
f 8/4/4 3/10/4 1/9/4 7/2/4
f 8/7/5 6/2/5 4/12/5 3/11/5
f 1/13/6 2/12/6 5/2/6 7/1/6

