# ProBuilder 5.0.7
# https://unity3d.com/unity/features/worldbuilding/probuilder
# 26.06.2023 15:55:07

mtllib ./roomBuild.mtl
o roomBuild

g Cube
v 0.170948 0 -8.710998
v 0.170948 0 -9.701365
v 0.170948 0.4656237 -9.701365
v 0.170948 0.4656237 -8.710998
v 10.28165 0 -9.701365
v 10.28165 0 -8.710998
v 10.28165 0.4656237 -8.710998
v 10.28165 0.4656237 -9.701365
v 10.28165 0 6.268468
v 9.228354 0 6.268468
v 9.228354 0.4656237 6.268468
v 10.28165 0.4656237 6.268468
v 9.228354 0 -9.701365
v 9.228354 0.4656237 -9.701365
v 9.228354 5.832752 -9.701365
v 10.28165 5.832752 -9.701365
v 10.28165 5.832752 -8.710998
v 9.228354 5.832752 -8.710998
v 9.228354 0 -8.710998
v 0.170948 0 6.268468
v 0.170948 0 5.54584
v 0.170948 0.4656237 5.54584
v 0.170948 0.4656237 6.268468
v 10.28165 0.4656237 5.54584
v 10.28165 0 5.54584
v 10.28165 5.832752 5.54584
v 9.228354 5.832752 5.54584
v 10.28165 5.832752 6.268468
v 9.228354 5.832752 6.268468
v 9.228354 0 5.54584
v 5.268559 0 6.268468
v 5.268559 0.4656236 6.268468
v 5.268559 0.4656236 -9.701365
v 5.268559 0 -9.701365
v 5.268559 5.832752 -9.701365
v 5.268559 5.832752 -8.710998
v 5.268559 0 -8.710998
v 5.268559 0.4656236 -8.710998
v 9.228354 0.4656237 -8.710998
v 9.228354 0.4656237 5.54584
v 5.268559 0.4656236 5.545841
v 5.268559 5.832752 5.545841
v 5.268559 5.832752 6.268468
v 5.268559 0 5.545841
v 2.909151 0 6.268468
v 2.909151 0.4656236 6.268468
v 2.909151 0.4656236 -9.701365
v 2.909151 0 -9.701365
v 0.170948 5.832752 -9.701365
v 2.909151 5.832752 -9.701365
v 2.909151 5.832752 -8.710998
v 0.170948 5.832752 -8.710998
v 2.909151 0 -8.710998
v 2.909151 0.4656236 -8.710998
v 2.909151 0.4656236 5.545841
v 0.170948 5.832752 5.54584
v 2.909151 5.832752 5.545841
v 2.909151 5.832752 6.268468
v 0.170948 5.832752 6.268468
v 2.909151 0 5.545841
v 10.28165 4.298339 5.545841
v 10.28165 4.298339 -8.710998
v 0.170948 4.298339 -9.701365
v 0.170948 4.298339 -8.710998
v 10.28165 4.298339 -9.701365
v 9.228354 4.298339 -9.701365
v 9.228354 4.298339 -8.710998
v 9.228354 4.298339 5.545841
v 10.28165 4.298339 6.268468
v 9.228354 4.298339 6.268468
v 0.170948 4.298339 5.545841
v 0.170948 4.298339 6.268468
v 5.268559 4.298339 -9.701365
v 5.268559 4.298339 -8.710998
v 5.268559 4.298339 6.268468
v 5.268559 4.298339 5.545842
v 2.909151 4.298339 -9.701365
v 2.909151 4.298339 -8.710998
v 2.909151 4.298339 6.268468
v 2.909151 4.298339 5.545842

vt 1.010373 0
vt 0 0
vt 0 0.4656237
vt 1.010373 0.4656237
vt -1.010373 0
vt -1.010373 0.4656237
vt -1.053292 0
vt -1.053292 0.4656237
vt 1.053292 0
vt 1.053292 0.4656237
vt 0 1.010373
vt 1.053292 1.010373
vt -1.053292 1.010373
vt 16.29242 0
vt 15.5552 0
vt 15.5552 0.4656237
vt 16.29242 0.4656237
vt -16.29242 0
vt -16.29242 0.4656237
vt -15.5552 0.4656237
vt -15.5552 0
vt 0 15.5552
vt 1.053292 15.5552
vt 0 16.29242
vt 1.053292 16.29242
vt -1.053292 15.5552
vt -1.053292 16.29242
vt -5.013088 0
vt -5.013088 0.4656236
vt 5.013088 0.4656236
vt 5.013088 0
vt 5.013088 1.010373
vt -5.013088 1.010373
vt 5.013088 15.5552
vt 5.013088 16.29242
vt -5.013088 15.5552
vt -5.013088 16.29242
vt -7.372496 0
vt -7.372496 0.4656236
vt -10.1107 0
vt -10.1107 0.4656237
vt 7.372496 0.4656236
vt 7.372496 0
vt 10.1107 0.4656237
vt 10.1107 0
vt 7.372496 1.010373
vt 10.1107 1.010373
vt -10.1107 1.010373
vt -7.372496 1.010373
vt 7.372496 15.5552
vt 10.1107 15.5552
vt 7.372496 16.29242
vt 10.1107 16.29242
vt -10.1107 15.5552
vt -7.372496 15.5552
vt -10.1107 16.29242
vt -7.372496 16.29242
vt -15.5552 4.298339
vt -1.010373 4.298339
vt -15.5552 5.832752
vt -1.010373 5.832752
vt -4.518529E-08 4.298339
vt 1.010373 4.298339
vt 0 5.832752
vt 1.010373 5.832752
vt 1.053292 4.298339
vt 1.053292 5.832752
vt 15.5552 4.298339
vt 15.5552 5.832752
vt -16.29242 4.298339
vt -16.29242 5.832752
vt -1.053292 4.298339
vt -1.053292 5.832752
vt 16.29242 4.298339
vt 16.29242 5.832752
vt 5.013088 5.832752
vt 5.013088 4.298339
vt -5.013088 4.298339
vt -5.013088 5.832752
vt 7.372496 5.832752
vt 7.372496 4.298339
vt 10.1107 5.832752
vt 10.1107 4.298339
vt -7.372496 4.298339
vt -7.372496 5.832752
vt -10.1107 4.298339
vt -10.1107 5.832752

vn -1 0 0
vn 1 0 0
vn 0 0 0.9802
vn 0 0 -0.9802
vn 0 1 0
vn 0 -1 0

usemtl Wall
f 4/4/1 3/3/1 2/2/1 1/1/1
f 5/2/2 8/3/2 7/6/2 6/5/2
f 12/3/3 11/8/3 10/7/3 9/2/3
f 13/9/4 14/10/4 8/3/4 5/2/4
f 18/12/5 17/11/5 16/2/5 15/9/5
f 5/2/6 6/11/6 19/13/6 13/7/6
f 23/17/1 22/16/1 21/15/1 20/14/1
f 25/21/2 24/20/2 12/19/2 9/18/2
f 25/21/2 6/5/2 7/6/2 24/20/2
f 27/23/5 26/22/5 17/11/5 18/12/5
f 29/25/5 28/24/5 26/22/5 27/23/5
f 6/11/6 25/22/6 30/26/6 19/13/6
f 25/22/6 9/24/6 10/27/6 30/26/6
f 11/8/3 32/29/3 31/28/3 10/7/3
f 34/31/4 33/30/4 14/10/4 13/9/4
f 36/32/5 18/12/5 15/9/5 35/31/5
f 13/7/6 19/13/6 37/33/6 34/28/6
f 43/35/5 29/25/5 27/23/5 42/34/5
f 19/13/6 30/26/6 44/36/6 37/33/6
f 44/36/6 30/26/6 10/27/6 31/37/6
f 46/39/3 45/38/3 31/28/3 32/29/3
f 23/41/3 20/40/3 45/38/3 46/39/3
f 33/30/4 34/31/4 48/43/4 47/42/4
f 47/42/4 48/43/4 2/45/4 3/44/4
f 52/47/5 51/46/5 50/43/5 49/45/5
f 36/32/5 35/31/5 50/43/5 51/46/5
f 48/38/6 53/49/6 1/48/6 2/40/6
f 53/49/6 48/38/6 34/28/6 37/33/6
f 59/53/5 58/52/5 57/50/5 56/51/5
f 58/52/5 43/35/5 42/34/5 57/50/5
f 1/48/6 53/49/6 60/55/6 21/54/6
f 60/55/6 53/49/6 37/33/6 44/36/6
f 60/55/6 45/57/6 20/56/6 21/54/6
f 60/55/6 44/36/6 31/37/6 45/57/6
f 7/6/2 62/59/2 61/58/2 24/20/2
f 62/59/2 17/61/2 26/60/2 61/58/2
f 64/63/1 63/62/1 3/3/1 4/4/1
f 52/65/1 49/64/1 63/62/1 64/63/1
f 14/10/4 66/66/4 65/62/4 8/3/4
f 66/66/4 15/67/4 16/64/4 65/62/4
f 8/3/2 65/62/2 62/59/2 7/6/2
f 65/62/2 16/64/2 17/61/2 62/59/2
f 68/68/1 67/63/1 39/4/1 40/16/1
f 27/69/1 18/65/1 67/63/1 68/68/1
f 24/20/2 61/58/2 69/70/2 12/19/2
f 61/58/2 26/60/2 28/71/2 69/70/2
f 69/62/3 70/72/3 11/8/3 12/3/3
f 28/64/3 29/73/3 70/72/3 69/62/3
f 72/74/1 71/68/1 22/16/1 23/17/1
f 59/75/1 56/69/1 71/68/1 72/74/1
f 73/77/4 35/76/4 15/67/4 66/66/4
f 33/30/4 73/77/4 66/66/4 14/10/4
f 67/72/3 74/78/3 38/29/3 39/8/3
f 18/73/3 36/79/3 74/78/3 67/72/3
f 70/72/3 75/78/3 32/29/3 11/8/3
f 29/73/3 43/79/3 75/78/3 70/72/3
f 76/77/4 42/76/4 27/67/4 68/66/4
f 41/30/4 76/77/4 68/66/4 40/10/4
f 77/81/4 50/80/4 35/76/4 73/77/4
f 33/30/4 47/42/4 77/81/4 73/77/4
f 77/81/4 63/83/4 49/82/4 50/80/4
f 77/81/4 47/42/4 3/44/4 63/83/4
f 74/78/3 78/84/3 54/39/3 38/29/3
f 36/79/3 51/85/3 78/84/3 74/78/3
f 64/86/3 4/41/3 54/39/3 78/84/3
f 51/85/3 52/87/3 64/86/3 78/84/3
f 75/78/3 79/84/3 46/39/3 32/29/3
f 43/79/3 58/85/3 79/84/3 75/78/3
f 72/86/3 23/41/3 46/39/3 79/84/3
f 58/85/3 59/87/3 72/86/3 79/84/3
f 80/81/4 57/80/4 42/76/4 76/77/4
f 80/81/4 71/83/4 56/82/4 57/80/4
f 80/81/4 55/42/4 22/44/4 71/83/4

usemtl floor_tiles_08
f 22/16/1 4/4/1 1/1/1 21/15/1
f 41/34/5 40/23/5 39/12/5 38/32/5
f 22/51/5 55/50/5 54/46/5 4/47/5
f 41/34/5 38/32/5 54/46/5 55/50/5

