# ProBuilder 5.0.7
# https://unity3d.com/unity/features/worldbuilding/probuilder
# 9.07.2023 12:54:34

mtllib ./Cube_(2).mtl
o Cube (2)

g Cube (2)
v 23.58 0.06999972 -9.515653
v 23.58 0.06999972 -9.851544
v 23.58 0.7281799 -9.851544
v 23.58 0.7281799 -9.515653
v 33.85614 0.06999972 -9.851544
v 33.85614 0.06999972 -9.515653
v 33.85614 0.7281799 -9.515653
v 33.85614 0.7281799 -9.851544
v 33.85614 0.06999972 5.376419
v 33.52151 0.06999972 5.376416
v 33.52151 0.7281799 5.376416
v 33.85614 0.7281799 5.376419
v 33.52151 0.06999972 -9.851542
v 33.52151 0.7281799 -9.851542
v 33.52151 7.180066 -9.851542
v 33.85614 7.180066 -9.851544
v 33.85614 7.180066 -9.515653
v 33.52151 7.180066 -9.515653
v 33.52151 0.06999972 -9.515653
v 23.58 0.06999972 5.376419
v 23.58 0.06999972 5.058851
v 23.58 0.7281799 5.058851
v 23.58 0.7281798 5.393661
v 33.85614 0.7281799 5.058851
v 33.85614 0.06999972 5.058851
v 33.52151 7.180066 5.376416
v 33.52151 7.180066 5.058851
v 33.85614 7.180066 5.058851
v 33.85614 7.180066 5.376419
v 33.52151 0.06999972 5.058851
v 23.58 4.981594 -9.851544
v 23.58 4.981594 -9.515653
v 33.85614 4.981594 5.058851
v 33.85614 4.981594 -9.515653
v 33.85614 4.981594 -9.851544
v 33.52151 4.981594 -9.851542
v 33.52151 0.7281799 5.058851
v 33.52151 0.7281799 -9.515653
v 33.52151 4.981594 -9.515653
v 33.52151 4.981594 5.058851
v 33.85614 4.981594 5.376419
v 23.58 4.981594 5.058851
v 23.58 4.981594 5.393661
v 33.52151 4.981594 5.376416
v 30.16756 0.06999972 5.376418
v 27.15768 0.06999972 5.376419
v 27.15768 0.7281798 5.393661
v 30.16756 0.7281798 5.376418
v 30.16756 0.7281798 -9.851543
v 27.15768 0.7281798 -9.851544
v 27.15768 0.06999972 -9.851544
v 30.16756 0.06999972 -9.851543
v 23.58 7.180066 -9.851544
v 27.15768 7.180066 -9.851544
v 27.15768 7.180066 -9.515653
v 23.58 7.180066 -9.515653
v 30.16756 7.180066 -9.851543
v 30.16756 7.180066 -9.515653
v 30.16756 0.06999972 -9.515653
v 27.15768 0.06999972 -9.515653
v 27.15768 0.7281798 -9.515653
v 27.15768 0.7281798 5.058851
v 30.16756 0.7281798 -9.515653
v 30.16756 0.7281798 5.058851
v 23.58 7.180066 5.376419
v 23.58 7.180066 5.058851
v 27.15768 7.180066 5.058851
v 27.15768 7.180066 5.376419
v 30.16756 7.180066 5.058851
v 30.16756 7.180066 5.376418
v 27.15768 0.06999972 5.058851
v 30.16756 0.06999972 5.058851
v 27.15768 4.981594 -9.851544
v 30.16756 4.981594 -9.851543
v 30.16756 4.981594 -9.515653
v 27.15768 4.981594 -9.515653
v 27.15768 4.981594 5.058851
v 27.15768 4.981594 5.393661
v 23.61762 0.7281798 5.376418
v 23.61762 4.981594 5.376418
v 23.61762 0.7281798 5.07751
v 23.61762 4.981594 5.07751
v 30.16756 4.981594 5.376418
v 30.16756 4.981594 5.044318
v 27.15768 4.981594 5.04432
v 27.15768 0.7281798 5.04432
v 30.16756 0.7281798 5.044318
v 32.95827 0.06999981 5.376416
v 32.95827 0.7281798 5.376416
v 32.95827 0.7281798 -9.851542
v 32.95827 0.06999981 -9.851542
v 32.95827 7.180066 -9.851542
v 32.95827 7.180066 -9.515653
v 32.95827 0.06999981 -9.515653
v 32.95827 0.7281798 -9.515653
v 32.95827 0.7281798 5.058851
v 32.95827 7.180066 5.058851
v 32.95827 7.180066 5.376416
v 32.95827 0.06999981 5.058851
v 32.95827 4.981594 -9.851542
v 32.95827 4.981594 -9.515653
v 32.95827 4.981594 5.058851
v 32.95827 4.981594 5.376416
v 23.58 6.890709 -9.851544
v 23.58 6.890709 -9.515653
v 33.85614 6.890709 5.058851
v 33.85614 6.890709 -9.515653
v 33.85614 6.890709 -9.851544
v 33.52151 6.890709 -9.851542
v 33.52151 6.890709 -9.515653
v 33.52151 6.890709 5.058851
v 33.85614 6.890709 5.376419
v 23.58 6.890709 5.058851
v 23.58 6.890709 5.376419
v 33.52151 6.890709 5.376416
v 27.15768 6.890709 -9.851544
v 30.16756 6.890709 -9.851543
v 27.15768 6.890709 -9.515653
v 30.16756 6.890709 -9.515653
v 27.15768 6.890709 5.058851
v 30.16756 6.890709 5.058851
v 30.16756 4.981594 5.058851
v 27.15768 6.890709 5.376419
v 30.16756 6.890709 5.376418
v 32.95827 6.890709 -9.851542
v 32.95827 6.890709 -9.515653
v 32.95827 6.890709 5.058851
v 32.95827 6.890709 5.376416
v 30.67619 0.06999981 5.376416
v 30.67619 0.7281798 5.376416
v 30.67619 0.7281798 -9.851542
v 30.67619 0.06999981 -9.851542
v 30.67619 7.180066 -9.851542
v 30.67619 7.180066 -9.515653
v 30.67619 0.06999981 -9.515653
v 30.67619 0.7281798 -9.515653
v 30.67619 0.7281798 5.058851
v 30.67619 7.180066 5.058851
v 30.67619 7.180066 5.376416
v 30.67619 0.06999981 5.058851
v 30.67619 4.981594 -9.851542
v 30.67619 4.981594 -9.515653
v 30.67619 4.981594 5.058851
v 30.67619 4.981594 5.376416
v 30.67619 6.890709 -9.851542
v 30.67619 6.890709 -9.515653
v 30.67619 6.890709 5.058851
v 30.67619 6.890709 5.376416
v 27.15005 0.7281798 5.376418
v 27.15005 4.981594 5.376418
v 27.15005 0.7281798 5.07751
v 27.15005 4.981594 5.07751
v 32.95827 6.890709 5.367232
v 32.95827 4.981594 5.367232
v 30.67619 4.981594 5.367232
v 30.67619 6.890709 5.367232

vt 0.0252439 -2.980232E-08
vt -9.813046E-08 -2.980232E-08
vt -9.813046E-08 0.04946557
vt 0.0252439 0.04946557
vt -0.02524376 -2.980232E-08
vt -0.02524376 0.04946557
vt 8.745363E-07 0.004995219
vt -0.02514871 0.004995218
vt -0.02514871 0.05446035
vt 8.745363E-07 0.05446035
vt 4.768372E-07 0.02524376
vt 0.02514982 0.02524376
vt -0.02514982 0.02524376
vt 1.144459 -2.980232E-08
vt 1.120592 -2.980232E-08
vt 1.120592 0.04946557
vt 1.145755 0.04946557
vt -1.144459 -2.980232E-08
vt -1.144459 0.04946557
vt -1.120592 0.04946557
vt -1.120592 -2.980232E-08
vt 0.02514982 1.144459
vt 0.02514982 1.120592
vt 4.768372E-07 1.120592
vt 2.384186E-07 1.144459
vt -0.02514982 1.120592
vt -0.02514982 1.144459
vt -8.14035E-06 0.3691314
vt 0.02523586 0.3691314
vt -1.120592 0.3691314
vt -0.02524376 0.3691314
vt 1.120592 0.3691314
vt -1.144459 0.3691314
vt 1.145763 0.3691314
vt -0.2772154 0.004995219
vt -0.503423 0.004995221
vt -0.503423 0.054466
vt -0.2772154 0.05446034
vt -0.7723041 0.004995222
vt -0.7723041 0.054466
vt 0.2772165 0.04946557
vt 0.5034241 0.04946557
vt 0.5034241 -2.980232E-08
vt 0.2772165 -2.980232E-08
vt 0.7723053 0.04946557
vt 0.7723053 -2.980232E-08
vt 0.503424 0.02524376
vt 0.772305 0.02524376
vt 0.2772164 0.02524376
vt -0.2772164 0.02524376
vt -0.2772165 -1.192093E-07
vt -0.5034241 -2.384186E-07
vt -0.503424 0.02524376
vt -0.7723053 -2.384186E-07
vt -0.772305 0.02524376
vt 0.503424 1.120592
vt 0.772305 1.120592
vt 0.2772164 1.120592
vt 0.7723053 1.144459
vt 0.5034241 1.144459
vt 0.2772165 1.144459
vt -0.772305 1.120592
vt -0.503424 1.120592
vt -0.2772164 1.120592
vt -0.2772165 1.144459
vt -0.5034241 1.144459
vt -0.7723053 1.144459
vt 0.7723053 0.3691314
vt 0.5034241 0.3691314
vt 0.2772165 0.3691314
vt -0.2772164 0.3691314
vt -0.2772164 0.04946557
vt -0.503424 0.04946557
vt -0.503424 0.3691314
vt -0.772305 0.04946557
vt -0.772305 0.3691314
vt -0.5039299 0.04866977
vt -0.772811 0.04866985
vt -0.772811 0.3683356
vt -0.5039299 0.3683355
vt 1.144459 0.04946557
vt 1.144459 0.3691314
vt 1.121994 0.04946557
vt 1.121994 0.3691314
vt -0.5034242 1.145755
vt -0.2772166 1.1195
vt -0.5034242 1.1195
vt -1.145756 0.3691314
vt -1.145756 0.04946557
vt -1.119501 0.3691314
vt -1.119501 0.04946557
vt 0.5034242 1.145755
vt 0.5034241 1.1195
vt 0.2772165 1.1195
vt -0.0674793 0.004995225
vt -0.0674793 0.05446034
vt 0.06748042 0.04946557
vt 0.06748042 -2.304728E-08
vt 0.06748027 0.02524376
vt -0.06748027 0.02524376
vt -0.06748042 -7.161373E-08
vt 0.06748027 1.120592
vt 0.06748042 1.144459
vt -0.06748027 1.120592
vt -0.06748042 1.144459
vt 0.06748042 0.3691314
vt -0.06748027 0.04946557
vt -0.06748027 0.3691314
vt -0.02565503 0.04867053
vt -0.06798562 0.04867053
vt -0.06798562 0.3683363
vt -0.02565503 0.3683362
vt -8.116892E-06 0.5126112
vt 0.02523586 0.5126112
vt -8.14035E-06 0.5343578
vt 0.02523586 0.5343578
vt -1.120592 0.5126112
vt -0.02524376 0.5126112
vt -1.120592 0.5343578
vt -0.02524376 0.5343578
vt 1.120592 0.5126112
vt 1.120592 0.5343578
vt -1.144459 0.5126112
vt -1.144459 0.5343578
vt 1.144467 0.5126112
vt 1.144467 0.5343578
vt 0.2772165 0.5343578
vt 0.5034241 0.5343578
vt 0.5034242 0.5126112
vt 0.2772164 0.5126111
vt 0.7723053 0.5126112
vt 0.7723053 0.5343578
vt -0.503424 0.5126112
vt -0.2772163 0.5126111
vt -0.503424 0.5343578
vt -0.2772164 0.5343578
vt -0.772305 0.5126112
vt -0.772305 0.5343578
vt -0.2777217 0.3683363
vt -0.5039294 0.5118161
vt -0.2777216 0.511816
vt -0.5039293 0.5335627
vt -0.2777217 0.5335627
vt -0.7728104 0.5118162
vt -0.7728104 0.5335628
vt 0.06748042 0.5126112
vt 0.06748042 0.5343578
vt -0.06748027 0.5126112
vt -0.06748027 0.5343578
vt -0.06798562 0.511816
vt -0.02565497 0.511816
vt -0.06798562 0.5335626
vt -0.02565503 0.5335626
vt -0.2389892 0.004995225
vt -0.2389892 0.05446034
vt 0.2389904 0.04946557
vt 0.2389904 -2.304728E-08
vt 0.2389902 0.02524376
vt -0.2389904 -7.161373E-08
vt -0.2389902 0.02524376
vt 0.2389902 1.120592
vt 0.2389904 1.144459
vt -0.2389902 1.120592
vt -0.2389904 1.144459
vt 0.2389904 0.3691314
vt -0.2389902 0.04946557
vt -0.2389902 0.3691314
vt -0.2394956 0.04867058
vt -0.2394956 0.3683363
vt -0.2777217 0.0486706
vt 0.2389902 0.5126112
vt 0.2389904 0.5343578
vt -0.2389901 0.5126112
vt -0.2389902 0.5343578
vt -0.2394954 0.511816
vt -0.2394956 0.5335627
vt -0.5039977 0.04946557
vt -0.7694777 0.04946557
vt -0.7694777 0.3691314
vt -0.5039977 0.3691314
vt -0.5039977 1.121994
vt -0.5039977 1.144459
vt -0.7694777 1.121994
vt -0.7694777 1.144459
vt 0.5039977 0.3691314
vt 0.7694777 0.3691314
vt 0.7694777 0.04946557
vt 0.5039977 0.04946557
vt 0.5039977 1.144459
vt 0.5039977 1.121994
vt 0.7694777 1.144459
vt 0.7694777 1.121994
vt 1.143769 0.5126112
vt 1.143769 0.3691314
vt 0.06748027 1.143769
vt 0.2389902 1.143769
vt -1.143769 0.3691312
vt -1.143769 0.5126109
vt -0.2389901 1.143769
vt -0.06748027 1.143769

vn -13.30582 0 0.0001256676
vn 13.30582 0 0.0001256676
vn -0.0001261394 0 13.30582
vn -0.0001261394 0 -13.30582
vn 0 13.30582 0
vn 0 -13.30582 0
vn 0.03810374 -0.1742175 13.30343
vn 0.07620047 -0.3484349 13.30103
vn 0 -0.3484408 13.30125
vn 0.07622662 -3.166622E-08 13.3056
vn 0.03811683 0.06008177 13.30544
vn 7.043413E-06 0.1201636 13.30527

usemtl Pupil
f 4/4/1 3/3/1 2/2/1 1/1/1
f 5/2/2 8/3/2 7/6/2 6/5/2
f 12/10/3 11/9/3 10/8/3 9/7/3
f 13/1/4 14/4/4 8/3/4 5/2/4
f 17/11/5 16/2/5 15/1/5 18/12/5
f 19/13/6 13/5/6 5/2/6 6/11/6
f 23/17/1 22/16/1 21/15/1 20/14/1
f 22/16/1 4/4/1 1/1/1 21/15/1
f 25/21/2 24/20/2 12/19/2 9/18/2
f 6/5/2 7/6/2 24/20/2 25/21/2
f 29/25/5 28/24/5 27/23/5 26/22/5
f 28/24/5 17/11/5 18/12/5 27/23/5
f 10/27/6 30/26/6 25/24/6 9/25/6
f 30/26/6 19/13/6 6/11/6 25/24/6
f 32/29/1 31/28/1 3/3/1 4/4/1
f 24/20/2 7/6/2 34/31/2 33/30/2
f 8/3/4 14/4/4 36/29/4 35/28/4
f 7/6/2 8/3/2 35/28/2 34/31/2
f 40/32/1 39/29/1 38/4/1 37/16/1
f 12/19/2 24/20/2 33/30/2 41/33/2
f 43/34/1 42/32/1 22/16/1 23/17/1
f 47/37/8 46/36/7 45/35/3 48/38/7
f 23/40/9 20/39/9 46/36/9 47/37/9
f 49/41/4 52/44/4 51/43/4 50/42/4
f 50/42/4 51/43/4 2/46/4 3/45/4
f 56/48/5 55/47/5 54/43/5 53/46/5
f 55/47/5 58/49/5 57/44/5 54/43/5
f 60/53/6 51/52/6 52/51/6 59/50/6
f 1/55/6 2/54/6 51/52/6 60/53/6
f 68/60/5 67/56/5 66/57/5 65/59/5
f 70/61/5 69/58/5 67/56/5 68/60/5
f 60/53/6 71/63/6 21/62/6 1/55/6
f 60/53/6 59/50/6 72/64/6 71/63/6
f 46/66/6 71/63/6 72/64/6 45/65/6
f 20/67/6 21/62/6 71/63/6 46/66/6
f 50/42/4 3/45/4 31/68/4 73/69/4
f 74/70/4 49/41/4 50/42/4 73/69/4
f 76/74/3 61/73/3 63/72/3 75/71/3
f 76/74/3 32/76/3 4/75/3 61/73/3
f 62/42/4 22/45/4 42/68/4 77/69/4
f 82/84/1 81/83/1 79/81/1 80/82/1
f 85/87/6 84/86/6 83/65/6 78/85/6
f 86/91/2 85/90/2 78/88/2 47/89/2
f 87/94/5 86/93/5 47/92/5 48/61/5
f 11/9/3 89/96/3 88/95/3 10/8/3
f 91/98/4 90/97/4 14/4/4 13/1/4
f 18/12/5 15/1/5 92/98/5 93/99/5
f 91/101/6 13/5/6 19/13/6 94/100/6
f 98/103/5 26/22/5 27/23/5 97/102/5
f 94/100/6 19/13/6 30/26/6 99/104/6
f 30/26/6 10/27/6 88/105/6 99/104/6
f 90/97/4 100/106/4 36/29/4 14/4/4
f 39/31/3 101/108/3 95/107/3 38/6/3
f 96/97/4 102/106/4 40/29/4 37/4/4
f 105/114/1 104/113/1 31/28/1 32/29/1
f 56/116/1 53/115/1 104/113/1 105/114/1
f 34/31/2 107/118/2 106/117/2 33/30/2
f 107/118/2 17/120/2 28/119/2 106/117/2
f 35/28/4 36/29/4 109/114/4 108/113/4
f 108/113/4 109/114/4 15/116/4 16/115/4
f 108/113/2 16/115/2 17/120/2 107/118/2
f 35/28/2 108/113/2 107/118/2 34/31/2
f 111/121/1 110/114/1 39/29/1 40/32/1
f 27/122/1 18/116/1 110/114/1 111/121/1
f 41/33/2 33/30/2 106/117/2 112/123/2
f 112/123/2 106/117/2 28/119/2 29/124/2
f 114/125/1 113/121/1 42/32/1 43/34/1
f 65/126/1 66/122/1 113/121/1 114/125/1
f 117/130/4 116/129/4 54/128/4 57/127/4
f 117/130/4 74/70/4 73/69/4 116/129/4
f 31/68/4 104/131/4 116/129/4 73/69/4
f 104/131/4 53/132/4 54/128/4 116/129/4
f 118/133/3 76/74/3 75/71/3 119/134/3
f 58/136/3 55/135/3 118/133/3 119/134/3
f 118/133/3 105/137/3 32/76/3 76/74/3
f 55/135/3 56/138/3 105/137/3 118/133/3
f 121/130/4 120/129/4 67/128/4 69/127/4
f 121/130/4 122/70/4 77/69/4 120/129/4
f 42/68/4 113/131/4 120/129/4 77/69/4
f 113/131/4 66/132/4 67/128/4 120/129/4
f 36/29/4 100/106/4 125/146/4 109/114/4
f 109/114/4 125/146/4 92/147/4 15/116/4
f 110/118/3 126/148/3 101/108/3 39/31/3
f 18/120/3 93/149/3 126/148/3 110/118/3
f 127/146/4 97/147/4 27/116/4 111/114/4
f 102/106/4 127/146/4 111/114/4 40/29/4
f 89/96/3 130/155/3 129/154/3 88/95/3
f 130/155/3 48/38/3 45/35/3 129/154/3
f 132/157/4 131/156/4 90/97/4 91/98/4
f 52/44/4 49/41/4 131/156/4 132/157/4
f 58/49/5 134/158/5 133/157/5 57/44/5
f 134/158/5 93/99/5 92/98/5 133/157/5
f 135/160/6 132/159/6 91/101/6 94/100/6
f 59/50/6 52/51/6 132/159/6 135/160/6
f 139/162/5 138/161/5 69/58/5 70/61/5
f 98/103/5 97/102/5 138/161/5 139/162/5
f 59/50/6 135/160/6 140/163/6 72/64/6
f 135/160/6 94/100/6 99/104/6 140/163/6
f 129/164/6 140/163/6 99/104/6 88/105/6
f 45/65/6 72/64/6 140/163/6 129/164/6
f 90/97/4 131/156/4 141/165/4 100/106/4
f 49/41/4 74/70/4 141/165/4 131/156/4
f 101/108/3 142/167/3 136/166/3 95/107/3
f 142/167/3 75/71/3 63/72/3 136/166/3
f 137/156/4 143/165/4 102/106/4 96/97/4
f 64/41/4 122/70/4 143/165/4 137/156/4
f 125/146/4 100/106/4 141/165/4 145/171/4
f 145/171/4 141/165/4 74/70/4 117/130/4
f 92/147/4 125/146/4 145/171/4 133/172/4
f 133/172/4 145/171/4 117/130/4 57/127/4
f 146/173/3 142/167/3 101/108/3 126/148/3
f 119/134/3 75/71/3 142/167/3 146/173/3
f 134/174/3 146/173/3 126/148/3 93/149/3
f 134/174/3 58/136/3 119/134/3 146/173/3
f 147/171/4 143/165/4 122/70/4 121/130/4
f 97/147/4 127/146/4 147/171/4 138/172/4
f 138/172/4 147/171/4 121/130/4 69/127/4
f 150/180/3 80/179/3 79/178/3 149/177/3
f 87/86/6 48/65/6 149/182/6 151/181/6
f 151/181/6 149/182/6 79/184/6 81/183/6
f 81/187/4 82/186/4 152/185/4 151/188/4
f 150/189/5 83/61/5 84/94/5 152/190/5
f 80/191/5 150/189/5 152/190/5 82/192/5
f 154/194/1 153/193/1 127/121/1 102/32/1
f 155/196/5 154/195/5 102/102/5 143/161/5
f 156/198/2 155/197/2 143/30/2 147/117/2
f 153/200/6 156/199/6 147/163/6 127/104/6

usemtl Silver
f 22/57/5 62/56/5 61/47/5 4/48/5
f 62/56/5 64/58/5 63/49/5 61/47/5
f 96/102/5 37/23/5 38/12/5 95/99/5
f 64/58/5 137/161/5 136/158/5 63/49/5
f 137/161/5 96/102/5 95/99/5 136/158/5

usemtl Wall
f 41/28/3 44/31/3 11/6/3 12/3/3
f 78/80/3 43/79/3 23/78/3 47/77/3
f 44/112/3 103/111/3 89/110/3 11/109/3
f 112/113/3 115/118/3 44/31/3 41/28/3
f 29/115/3 26/120/3 115/118/3 112/113/3
f 123/140/12 78/80/11 83/139/10 124/141/11
f 70/143/3 68/142/3 123/140/3 124/141/3
f 123/140/12 114/144/12 43/79/12 78/80/12
f 68/142/3 65/145/3 114/144/3 123/140/3
f 115/151/3 128/150/3 103/111/3 44/112/3
f 26/153/3 98/152/3 128/150/3 115/151/3
f 103/111/3 144/169/3 130/168/3 89/110/3
f 144/169/3 83/139/3 48/170/3 130/168/3
f 124/141/3 83/139/3 144/169/3 148/175/3
f 139/176/3 148/175/3 128/150/3 98/152/3
f 139/176/3 70/143/3 124/141/3 148/175/3

